<?xml version="1.0" encoding="utf-8"?>
<!-- Generator: Adobe Illustrator 28.3.0, SVG Export Plug-In . SVG Version: 6.00 Build 0)  -->
<svg version="1.1" id="Layer_1" xmlns="http://www.w3.org/2000/svg" xmlns:xlink="http://www.w3.org/1999/xlink" x="0px" y="0px"
	 viewBox="0 0 654.66 224.84" style="enable-background:new 0 0 654.66 224.84;" xml:space="preserve">
<style type="text/css">
	.st0{fill:#FFFFFF;}
	.st1{fill:#DE0021;}
</style>
<g>
	<path class="st1" d="M138.44,55.93c-4.62,2.26-9.13,4.21-13.42,5.75c1.7,2.28,3.77,4.91,6.13,7.71l49.01,15.28l-25.45,6.73
		c3.84,2.7,7.9,5.16,12.18,7.18l6.97,3.29l24-6.35l-7.06,40.16l-75.24,22.35v-40.73l23.55-6.23c-4.32-3.51-8.74-7.54-13.07-12.08
		l-18.01,4.76l-18.83-4.89c-4.33,4.55-8.76,8.59-13.09,12.12l24.42,6.35v41.21l-76.27-18.56l-7.82-44.51l24.76,6.43l7.03-3.32
		c4.31-2.04,8.36-4.5,12.16-7.21L34.37,84.6l48.79-15.21c2.2-2.74,4.14-5.35,5.77-7.68c-3.96-1.38-8.54-3.24-13.48-5.65L7.69,77.18
		c-5.26,1.64-8.48,6.93-7.53,12.35l17.97,102.23c0.71,4.05,3.64,7.36,7.57,8.57l78.25,24.03c2.09,0.64,4.33,0.64,6.43,0l78.25-24.03
		c3.93-1.21,6.86-4.52,7.57-8.57l17.97-102.23c0.95-5.42-2.27-10.71-7.53-12.35L138.44,55.93z M100.55,207.6l-68.06-20.9
		l-5.38-30.59l73.43,17.87V207.6z M181.84,186.71l-66.27,20.35v-33.37l72.33-21.48L181.84,186.71z"/>
	<g>
		<g>
			<path class="st1" d="M115.69,58.53c0.5-0.14,1-0.28,1.51-0.43c9.2-2.63,19.69-7.4,30.19-13.57c19.45-11.43,40.2-41.5,12.76-44.4
				C135.11-2.5,111,35.53,107.01,42.12c-3.99-6.6-28.1-44.63-53.16-41.99c-27.41,2.89-3.12,34.43,12.79,44.4
				c10.32,6.46,20.95,10.94,30.16,13.57c0.43,0.13,0.85,0.24,1.27,0.36c-7.29,11.75-23.85,34.29-47.34,45.38
				c0.96,0.07,1.88,0.11,2.75,0.11c0.72,0,1.39-0.03,2.02-0.1l8.18-0.86l-2.8,7.73c-0.21,0.59-1.03,2.81-2.27,5.71
				c13.28-8.45,32.14-23.48,44.43-46.24l4.53-8.38l4.53,8.38c12.29,22.76,31.13,37.79,44.41,46.24c-1.24-2.89-2.06-5.11-2.27-5.69
				l-2.81-7.74l8.19,0.86c0.63,0.07,1.31,0.1,2.03,0.1c0.87,0,1.8-0.04,2.76-0.11C141.59,93.07,123.76,70.75,115.69,58.53z
				 M142.52,20.3c10.01-0.52,3.59,13.05-12.39,21.65c-5.35,2.87-14.18,6.57-18.03,8.16c-1.04,0.43-1.71,0.69-1.88,0.75
				c0.38-0.49,0.81-1.04,1.27-1.68C118.12,40.56,133.2,20.77,142.52,20.3z M83.89,41.95c-15.98-8.6-22.4-22.17-12.39-21.65
				c9.29,0.46,24.37,20.26,31.02,28.88c0.46,0.64,0.9,1.19,1.27,1.68c-0.17-0.06-0.84-0.32-1.88-0.75
				C98.07,48.52,89.24,44.82,83.89,41.95z"/>
		</g>
	</g>
	<g>
		<path d="M295.29,45.79c-1.99,0-3.75,0.7-5.24,2.08c-1.49,1.39-2.25,3.03-2.25,4.89v39.72c0,4.85-1.34,8.59-3.99,11.1
			c-2.65,2.52-6.22,3.8-10.6,3.8c-4.38,0-7.94-1.28-10.6-3.8c-2.65-2.51-3.99-6.25-3.99-11.1V52.76c0-1.86-0.74-3.5-2.2-4.89
			c-1.46-1.38-3.2-2.08-5.19-2.08c-1.92,0-3.6,0.7-4.99,2.09c-1.39,1.39-2.09,3.03-2.09,4.89v39.92c0,8.16,2.77,14.75,8.24,19.6
			c5.46,4.84,12.46,7.29,20.81,7.29c8.28,0,15.25-2.45,20.71-7.29c5.54-4.91,8.34-11.5,8.34-19.6V52.76c0-1.92-0.69-3.58-2.04-4.94
			C298.87,46.47,297.21,45.79,295.29,45.79z"/>
		<path d="M346.04,64.15c-5,0-9.22,1.48-12.56,4.4c-2.4,2.09-4.01,4.13-4.82,6.08v-3.2c0-1.92-0.7-3.6-2.09-4.99
			c-1.39-1.38-3.03-2.09-4.88-2.09c-1.92,0-3.6,0.7-4.99,2.09c-1.39,1.39-2.09,3.07-2.09,4.99v40.96c0,1.92,0.7,3.58,2.09,4.94
			c1.38,1.35,3.06,2.03,4.98,2.03c1.85,0,3.5-0.69,4.88-2.03c1.39-1.35,2.09-3.01,2.09-4.94l0-24.82c0.13-0.87,0.44-1.87,0.91-2.98
			c0.47-1.11,1.17-2.36,2.09-3.72c0.9-1.33,2.2-2.45,3.87-3.31c1.67-0.87,3.57-1.31,5.65-1.31c3.27,0,5.89,1.1,7.79,3.26
			c1.91,2.18,2.87,5.4,2.87,9.57v23.31c0,1.92,0.7,3.58,2.09,4.94c1.38,1.35,3.03,2.03,4.88,2.03c1.92,0,3.6-0.69,4.98-2.03
			c1.39-1.35,2.09-3.01,2.09-4.94V89.07c0-8.14-1.81-14.4-5.38-18.59C356.96,66.28,352.08,64.15,346.04,64.15z"/>
		<path d="M384.94,64.35c-1.92,0-3.6,0.7-4.99,2.09c-1.39,1.39-2.09,3.07-2.09,4.99v40.85c0,1.99,0.7,3.7,2.09,5.09
			c1.39,1.38,3.07,2.09,4.99,2.09c1.85,0,3.5-0.7,4.88-2.09c1.39-1.39,2.09-3.1,2.09-5.09V71.43c0-1.92-0.7-3.6-2.09-4.99
			C388.43,65.06,386.79,64.35,384.94,64.35z"/>
		<path d="M384.94,43.62c-1.92,0-3.62,0.7-5.04,2.09c-1.42,1.39-2.14,3.03-2.14,4.89s0.72,3.5,2.14,4.89
			c1.42,1.38,3.12,2.09,5.04,2.09c1.85,0,3.51-0.7,4.93-2.09c1.42-1.39,2.14-3.03,2.14-4.89c0-1.85-0.72-3.5-2.14-4.89
			C388.45,44.32,386.79,43.62,384.94,43.62z"/>
		<path d="M444.77,64.35c-3.06,0-5.3,1.65-6.64,4.91l-12.85,29.96l-12.75-29.96c-1.35-3.26-3.62-4.91-6.75-4.91
			c-1.78,0-3.32,0.63-4.57,1.88c-1.25,1.25-1.88,2.76-1.88,4.47c0,0.86,0.25,1.93,0.75,3.21l18.26,39.82
			c1.62,3.52,3.96,5.31,6.95,5.31c2.99,0,5.36-1.79,7.05-5.31l18.16-39.82c0.56-1.27,0.85-2.35,0.85-3.2c0-1.71-0.63-3.22-1.88-4.47
			C448.19,64.99,446.62,64.35,444.77,64.35z"/>
		<path d="M497.14,71.12c-5.53-4.7-11.59-7.08-18.02-7.08c-6.5,0-12.59,2.31-18.12,6.87c-2.77,2.22-5.04,5.22-6.73,8.92
			c-1.69,3.7-2.55,7.74-2.55,12.03c0,5.73,1.4,10.85,4.17,15.21c2.77,4.36,6.38,7.55,10.74,9.49c4.21,1.86,8.79,2.81,13.62,2.81
			c6.15,0,11.41-1.51,15.65-4.5c2.25-1.9,3.4-3.88,3.4-5.88c0-1.37-0.46-2.55-1.36-3.49c-0.91-0.94-2.1-1.42-3.55-1.42
			c-1.01,0-2.7,0.55-5.16,1.67c-3.25,1.42-6.1,2.14-8.45,2.14c-3.84,0-7.1-1.01-9.69-2.99c-2.5-1.91-4.1-4.61-4.74-8.03l30.32,0.21
			c2.94,0,5.15-0.59,6.57-1.76c1.43-1.18,2.16-3.11,2.16-5.73C505.39,81.98,502.61,75.76,497.14,71.12z M470.47,79.22
			c2.38-1.91,5.29-2.88,8.65-2.88c3.29,0,6.09,0.97,8.34,2.87c2.18,1.85,3.53,4.49,4.04,7.83h-25.18
			C466.77,83.71,468.16,81.07,470.47,79.22z"/>
		<path d="M542.98,64.15c-4.25,0-8.02,1.48-11.22,4.4c-2.29,2.14-3.83,4.16-4.6,6.02v-3.14c0-1.92-0.7-3.6-2.09-4.99
			c-1.39-1.38-3.03-2.09-4.88-2.09c-1.92,0-3.6,0.7-4.99,2.09c-1.39,1.39-2.09,3.07-2.09,4.99v40.96c0,1.85,0.7,3.5,2.09,4.88
			c1.39,1.38,3.06,2.09,4.99,2.09c1.85,0,3.5-0.7,4.88-2.09c1.39-1.39,2.09-3.03,2.09-4.88l0-24.83c0.33-2.4,1.73-4.7,4.15-6.86
			c2.48-2.28,5.65-3.44,9.41-3.44c5.93,0,8.93-2.24,8.93-6.66c0-1.85-0.62-3.41-1.83-4.63C546.59,64.76,544.97,64.15,542.98,64.15z"
			/>
		<path d="M578.54,86.65l-6.29-1.86c-3.48-1-5.17-2.6-5.17-4.9c0-1.37,0.52-2.45,1.6-3.3c1.08-0.85,2.61-1.28,4.53-1.28
			c2.79,0,5.22,1.15,7.22,3.4c1.56,1.99,3.54,2.99,5.88,2.99c1.64,0,2.99-0.48,4-1.41c1.02-0.94,1.53-2.26,1.53-3.91
			c0-1.49-0.57-3.07-1.7-4.69c-1.67-2.37-4.1-4.26-7.23-5.61c-3.12-1.35-6.52-2.04-10.11-2.04c-5.26,0-9.89,1.44-13.78,4.28
			c-3.84,2.79-5.78,6.72-5.78,11.67c0,7.8,5.03,13.2,14.94,16.04l5.88,1.75c3.91,1.13,5.89,2.88,5.89,5.21
			c0,1.43-0.65,2.55-1.99,3.44c-1.36,0.89-3.24,1.35-5.58,1.35c-3.89,0-7.11-1.56-9.59-4.65c-1.84-2.26-3.78-3.4-5.78-3.4
			c-1.66,0-2.99,0.55-3.97,1.64c-0.97,1.08-1.46,2.35-1.46,3.79c0,1.84,0.95,4.08,2.85,6.67c4.02,4.99,10.06,7.53,17.95,7.53
			c5.88,0,10.96-1.47,15.11-4.38c4.25-3,6.41-7.27,6.41-12.7c0-4.18-1.31-7.53-3.9-9.95C587.43,89.94,583.58,88.03,578.54,86.65z"/>
		<path d="M652.06,79.88c-1.73-3.67-4.05-6.68-6.88-8.97c-5.6-4.56-11.76-6.87-18.33-6.87c-4.42,0-8.73,1.05-12.81,3.13
			c-4.08,2.07-7.61,5.22-10.52,9.37c-2.98,4.29-4.48,9.44-4.48,15.32c0,5.87,1.51,11.03,4.48,15.32c2.9,4.28,6.51,7.47,10.73,9.48
			c4.08,1.93,8.31,2.91,12.6,2.91c3.04,0,6.19-0.6,9.38-1.77c3.18-1.17,6.18-2.87,8.94-5.04c2.77-2.18,5.07-5.13,6.83-8.76
			c1.76-3.63,2.66-7.71,2.66-12.13C654.66,87.58,653.79,83.55,652.06,79.88z M626.85,76.34c3.69,0,6.96,1.43,9.71,4.26
			c2.76,2.75,4.15,6.54,4.15,11.26c0,4.59-1.4,8.38-4.15,11.26c-2.75,2.76-6.02,4.15-9.71,4.15c-3.76,0-7.07-1.4-9.82-4.15
			c-2.69-2.76-4.05-6.55-4.05-11.27c0-4.79,1.36-8.58,4.05-11.27C619.72,77.77,623.02,76.34,626.85,76.34z"/>
	</g>
	<g>
		<path d="M313.23,128.73c-2.97,0-5.35,1.57-7.07,4.66l-24.52,43.96l-24.42-43.96c-1.72-3.09-4.1-4.66-7.07-4.66
			c-1.8,0-3.35,0.6-4.61,1.78c-1.26,1.19-1.89,2.81-1.89,4.82v57.75c0,1.94,0.72,3.65,2.14,5.06c1.42,1.42,3.15,2.14,5.17,2.14
			c1.95,0,3.62-0.72,4.97-2.15c1.35-1.42,2.03-3.12,2.03-5.06v-32.76l17.62,32.99c1.45,2.63,3.49,3.96,6.06,3.96
			c2.64,0,4.71-1.33,6.17-3.96l17.52-32.98v32.75c0,1.94,0.7,3.65,2.09,5.06c1.38,1.42,3.07,2.14,5.02,2.14
			c2.01,0,3.75-0.72,5.16-2.14c1.42-1.42,2.14-3.12,2.14-5.07v-57.75c0-2.01-0.64-3.63-1.89-4.82
			C316.59,129.33,315.04,128.73,313.23,128.73z"/>
		<path d="M373.56,153.44c-5.39-4.58-11.3-6.9-17.57-6.9c-6.34,0-12.28,2.25-17.67,6.7c-2.7,2.16-4.91,5.09-6.56,8.7
			c-1.65,3.6-2.49,7.55-2.49,11.73c0,5.59,1.37,10.58,4.07,14.83c2.7,4.25,6.22,7.36,10.48,9.25c4.11,1.82,8.58,2.74,13.29,2.74
			c6,0,11.13-1.47,15.26-4.39c2.2-1.86,3.31-3.78,3.31-5.73c0-1.34-0.45-2.48-1.33-3.4c-0.89-0.92-2.05-1.39-3.46-1.39
			c-0.98,0-2.63,0.54-5.03,1.63c-3.17,1.39-5.95,2.09-8.25,2.09c-3.75,0-6.93-0.98-9.45-2.92c-2.44-1.87-4-4.5-4.63-7.83l29.57,0.2
			c2.86,0,5.02-0.58,6.4-1.72c1.4-1.15,2.11-3.03,2.11-5.58C381.6,164.03,378.9,157.97,373.56,153.44z M347.55,161.34
			c2.32-1.86,5.16-2.81,8.44-2.81c3.21,0,5.94,0.94,8.13,2.8c2.12,1.81,3.45,4.37,3.94,7.64h-24.55
			C343.94,165.71,345.3,163.15,347.55,161.34z"/>
		<path d="M422.98,148.43c-1.19-1.19-2.77-1.79-4.71-1.79c-4.14,0-7.82,1.44-10.94,4.3c-2.24,2.09-3.74,4.05-4.49,5.87v-3.07
			c0-1.88-0.69-3.51-2.04-4.87c-1.35-1.35-2.95-2.04-4.76-2.04c-1.87,0-3.51,0.69-4.86,2.04c-1.35,1.35-2.04,2.99-2.04,4.87v39.94
			c0,1.81,0.69,3.41,2.04,4.76c1.35,1.35,2.99,2.04,4.86,2.04c1.81,0,3.41-0.69,4.76-2.04c1.35-1.35,2.04-2.95,2.04-4.76l0-24.21
			c0.32-2.34,1.68-4.59,4.04-6.69c2.42-2.22,5.51-3.35,9.18-3.35c5.78,0,8.71-2.19,8.71-6.5
			C424.77,151.13,424.17,149.61,422.98,148.43z"/>
		<path d="M451.67,158.53c3.46,0,6.25,1.02,8.28,3.05c1.65,1.44,3.44,2.18,5.3,2.18c1.47,0,2.78-0.51,3.9-1.53
			c1.12-1.02,1.7-2.29,1.7-3.77c0-0.62-0.09-1.23-0.26-1.79c-0.17-0.56-0.44-1.09-0.79-1.58c-0.35-0.49-0.63-0.85-0.87-1.13
			c-0.24-0.27-0.59-0.62-1.07-1.07c-0.46-0.43-0.73-0.68-0.81-0.76c-4.12-3.72-9.46-5.6-15.87-5.6c-9.7,0-17.39,4.07-22.85,12.09
			c-2.83,4.12-4.27,9.14-4.27,14.94c0,4.32,0.84,8.28,2.49,11.78c1.65,3.51,3.84,6.37,6.51,8.49c2.66,2.12,5.58,3.78,8.68,4.92
			c3.09,1.15,6.27,1.73,9.45,1.73c6.14,0,11.48-1.92,15.87-5.7l1.02-0.92c0.67-0.67,1.13-1.16,1.38-1.48
			c0.25-0.32,0.54-0.83,0.88-1.56c0.35-0.74,0.53-1.5,0.53-2.27c0-1.48-0.57-2.74-1.7-3.77c-1.12-1.01-2.43-1.53-3.9-1.53
			c-1.87,0-3.65,0.73-5.32,2.19c-2.02,2.02-4.8,3.04-8.27,3.04c-4.07,0-7.46-1.36-10.08-4.05c-2.62-2.68-3.95-6.35-3.95-10.88
			c0-4.6,1.33-8.3,3.95-10.99C444.21,159.89,447.6,158.53,451.67,158.53z"/>
		<path d="M511.03,146.64c-4.87,0-8.99,1.44-12.24,4.29c-2.34,2.04-3.91,4.02-4.7,5.93v-22.43c0-1.81-0.69-3.41-2.04-4.76
			c-1.35-1.35-2.95-2.04-4.76-2.04c-1.87,0-3.51,0.69-4.86,2.04c-1.35,1.35-2.04,2.95-2.04,4.76v59.26c0,1.88,0.69,3.5,2.04,4.82
			c1.35,1.32,2.99,1.98,4.86,1.98c1.81,0,3.41-0.67,4.76-1.98c1.35-1.32,2.04-2.94,2.04-4.82l0-24.21c0.13-0.85,0.43-1.82,0.89-2.9
			c0.46-1.08,1.14-2.3,2.04-3.63c0.88-1.3,2.15-2.39,3.78-3.23c1.63-0.85,3.49-1.28,5.51-1.28c3.19,0,5.75,1.07,7.6,3.18
			c1.86,2.12,2.8,5.26,2.8,9.34v22.74c0,1.88,0.69,3.5,2.04,4.82c1.35,1.32,2.95,1.98,4.76,1.98c1.87,0,3.51-0.67,4.86-1.98
			c1.35-1.32,2.04-2.94,2.04-4.82v-22.74c0-7.94-1.76-14.04-5.24-18.13C521.67,148.72,516.92,146.64,511.03,146.64z"/>
		<path d="M586.09,146.84c-1.87,0-3.51,0.69-4.86,2.04c-1.35,1.35-2.04,2.96-2.04,4.77v0.58c-1.14-2.07-2.92-3.83-5.29-5.24
			c-2.75-1.63-5.89-2.45-9.34-2.45c-3.85,0-7.65,0.97-11.29,2.9c-3.65,1.92-6.81,5.03-9.41,9.25c-2.6,4.21-3.91,9.22-3.91,14.88
			c0,8.83,2.74,15.76,8.14,20.62c5.05,4.32,10.59,6.5,16.47,6.5c4.06,0,7.49-0.96,10.21-2.87c2.13-1.54,3.61-3.09,4.41-4.62v0.58
			c0,1.88,0.69,3.5,2.04,4.82c1.35,1.32,2.99,1.98,4.86,1.98c1.87,0,3.52-0.67,4.91-1.98c1.39-1.32,2.09-2.94,2.09-4.82v-40.14
			c0-1.81-0.72-3.41-2.14-4.77C589.53,147.52,587.89,146.84,586.09,146.84z M579.79,173.56c0,5.07-1.33,8.93-3.94,11.48
			c-2.69,2.49-5.67,3.75-8.88,3.75c-3.6,0-6.75-1.33-9.37-3.95c-2.62-2.62-3.95-6.41-3.95-11.28c0-4.8,1.33-8.57,3.95-11.19
			c2.69-2.68,5.84-4.05,9.37-4.05c3.27,0,6.25,1.3,8.88,3.86C578.46,164.6,579.79,168.43,579.79,173.56z"/>
		<path d="M649.42,152.82c-3.49-4.1-8.25-6.18-14.13-6.18c-4.87,0-8.99,1.44-12.24,4.29c-2.34,2.04-3.91,4.02-4.7,5.93v-3.12
			c0-1.88-0.69-3.51-2.04-4.87c-1.35-1.35-2.95-2.04-4.76-2.04c-1.87,0-3.51,0.69-4.86,2.04c-1.35,1.35-2.04,2.99-2.04,4.87v39.94
			c0,1.88,0.69,3.5,2.04,4.82c1.35,1.32,2.99,1.98,4.86,1.98c1.81,0,3.41-0.67,4.76-1.98c1.35-1.32,2.04-2.94,2.04-4.82l0-24.21
			c0.13-0.85,0.43-1.82,0.89-2.9c0.46-1.08,1.14-2.3,2.04-3.63c0.88-1.3,2.15-2.39,3.78-3.23c1.63-0.85,3.49-1.28,5.51-1.28
			c3.19,0,5.75,1.07,7.6,3.18c1.86,2.12,2.8,5.26,2.8,9.34v22.74c0,1.88,0.69,3.5,2.04,4.82c1.35,1.32,2.95,1.98,4.76,1.98
			c1.87,0,3.51-0.67,4.86-1.98c1.35-1.32,2.04-2.94,2.04-4.82v-22.74C654.66,163.01,652.9,156.91,649.42,152.82z"/>
	</g>
</g>
</svg>
